<svg width="46" height="46" viewBox="0 0 46 46" fill="none" xmlns="http://www.w3.org/2000/svg">
<g clip-path="url(#clip0_29_2)">
<path d="M35.7778 38.3334H7.66664V10.2223H24.5589L27.1144 7.66675H7.66664C6.98886 7.66675 6.33885 7.93599 5.85959 8.41525C5.38033 8.89451 5.11108 9.54453 5.11108 10.2223V38.3334C5.11108 39.0112 5.38033 39.6612 5.85959 40.1405C6.33885 40.6197 6.98886 40.889 7.66664 40.889H35.7778C36.4555 40.889 37.1055 40.6197 37.5848 40.1405C38.0641 39.6612 38.3333 39.0112 38.3333 38.3334V19.1667L35.7778 21.7223V38.3334Z" fill="black"/>
<path d="M42.8439 7.46216L38.5378 3.15605C38.3467 2.96443 38.1196 2.81239 37.8697 2.70865C37.6197 2.60491 37.3517 2.55151 37.0811 2.55151C36.8105 2.55151 36.5425 2.60491 36.2925 2.70865C36.0426 2.81239 35.8155 2.96443 35.6244 3.15605L18.1061 20.7766L16.6878 26.9227C16.6274 27.2206 16.6337 27.5283 16.7064 27.8234C16.7791 28.1186 16.9162 28.394 17.1081 28.6298C17.2999 28.8657 17.5416 29.056 17.8158 29.1873C18.09 29.3185 18.3899 29.3873 18.6939 29.3888C18.851 29.406 19.0095 29.406 19.1667 29.3888L25.3639 28.0216L42.8439 10.3755C43.0355 10.1844 43.1876 9.95736 43.2913 9.7074C43.395 9.45744 43.4484 9.18946 43.4484 8.91883C43.4484 8.6482 43.395 8.38023 43.2913 8.13026C43.1876 7.8803 43.0355 7.65327 42.8439 7.46216ZM24.035 25.6577L19.3583 26.6927L20.4444 22.0544L33.6311 8.77828L37.2344 12.3816L24.035 25.6577ZM38.6783 10.9377L35.075 7.33439L37.0556 5.3155L40.6844 8.94439L38.6783 10.9377Z" fill="black"/>
</g>
<defs>
<clipPath id="clip0_29_2">
<rect width="46" height="46" fill="white"/>
</clipPath>
</defs>
</svg>
