<svg width="42" height="42" viewBox="0 0 42 42" fill="none" xmlns="http://www.w3.org/2000/svg">
<g clip-path="url(#clip0_29_18)">
<path d="M42 21.0001V20.9896C42 14.7754 39.2945 9.19462 34.9983 5.35687L34.9773 5.33937C34.9242 5.28221 34.8649 5.23114 34.8005 5.18712L34.797 5.18537C30.981 1.83547 26.0742 -0.00754517 20.9965 0.00186693C15.6905 0.00186693 10.8465 1.97237 7.15401 5.22387L7.17676 5.20462C7.13239 5.23854 7.09137 5.27663 7.05426 5.31837C4.83452 7.28402 3.05774 9.70061 1.84161 12.4047C0.625481 15.1088 -0.00224592 18.0404 6.03774e-06 21.0054C6.03774e-06 27.2179 2.70201 32.7986 6.99476 36.6381L7.01576 36.6556C7.0716 36.7184 7.13376 36.7753 7.20126 36.8254L7.20476 36.8271C11.0195 40.1725 15.9227 42.0128 20.9965 42.0036C26.094 42.0114 31.0183 40.154 34.8408 36.7816L34.818 36.8009C37.0763 34.8375 38.8865 32.4119 40.1262 29.6883C41.3659 26.9647 42.0061 24.0066 42.0035 21.0141V21.0019L42 21.0001ZM34.1915 34.6589C33.1508 33.818 32.0322 33.0784 30.8508 32.4504L30.737 32.3944C31.8098 29.3021 32.4555 25.7374 32.5168 22.0291V22.0011H39.9735C39.7227 26.7987 37.6577 31.3217 34.1968 34.6536L34.1915 34.6589ZM22.001 32.0251C24.2463 32.1459 26.3445 32.6394 28.28 33.4426L28.154 33.3971C26.6035 36.9321 24.4213 39.3611 22.001 39.8949V32.0251ZM22.001 30.0231V22.0011H30.52C30.4522 25.3231 29.8762 28.615 28.812 31.7626L28.8803 31.5334C26.7079 30.6391 24.3969 30.1287 22.05 30.0249L22.0028 30.0231H22.001ZM22.001 19.9991V11.9771C24.4111 11.8675 26.7838 11.3399 29.0133 10.4179L28.875 10.4686C29.8463 13.3019 30.443 16.5674 30.52 19.9624V19.9991H22.001ZM22.001 9.97512V2.10887C24.4213 2.64262 26.6035 5.06112 28.154 8.60662C26.3445 9.35912 24.2463 9.85087 22.0518 9.97337L22.001 9.97512ZM26.9955 2.97512C29.0582 3.66161 30.987 4.69882 32.697 6.04112L32.6568 6.00962C31.8815 6.61862 31.0118 7.19262 30.0948 7.69137L29.9968 7.74037C29.2577 5.99063 28.2387 4.37289 26.9798 2.95062L26.9955 2.96987V2.97512ZM19.9955 2.11412V9.97512C17.8368 9.86514 15.7131 9.38568 13.7165 8.55762L13.8425 8.60312C15.4 5.06812 17.5788 2.64087 19.999 2.10712L19.9955 2.11412ZM12.0015 7.73512C11.0531 7.22433 10.1493 6.63485 9.29951 5.97287L9.34151 6.00437C11.0017 4.7014 12.8702 3.68846 14.868 3.00837L15.001 2.96812C13.7763 4.35277 12.7786 5.92274 12.0453 7.61962L12.0015 7.73512ZM19.999 11.9754V19.9974H11.48C11.557 16.5656 12.1538 13.3001 13.1933 10.2376L13.125 10.4669C15.2974 11.3568 17.6066 11.8664 19.9518 11.9736L19.999 11.9754ZM19.999 21.9994V30.0214C17.5889 30.131 15.2162 30.6586 12.9868 31.5806L13.125 31.5299C12.1538 28.6984 11.557 25.4311 11.48 22.0361V21.9994H19.999ZM19.999 32.0234V39.8896C17.5788 39.3559 15.3965 36.9374 13.846 33.3919C15.6555 32.6394 17.7538 32.1494 19.9483 32.0269L19.999 32.0234ZM15.0115 39.0234C12.9507 38.3358 11.0224 37.3013 9.31001 35.9644L9.35201 35.9959C10.1273 35.3869 10.997 34.8129 11.914 34.3141L12.012 34.2651C12.7456 36.0152 13.7645 37.6314 15.0273 39.0479L15.0115 39.0304V39.0234ZM29.9985 34.2634C31.0135 34.8146 31.8833 35.3869 32.7005 36.0256L32.6585 35.9941C30.9983 37.2971 29.1298 38.31 27.132 38.9901L26.999 39.0304C28.2236 37.6462 29.2212 36.0769 29.9548 34.3806L29.9985 34.2669V34.2634ZM39.9735 19.9991H32.5168C32.462 16.3784 31.8372 12.7889 30.6653 9.36262L30.737 9.60412C31.9731 8.95307 33.1435 8.18417 34.2318 7.30812L34.1898 7.33962C37.6449 10.6581 39.7109 15.1648 39.97 19.9484L39.9735 19.9991ZM7.80851 7.34137C8.81651 8.16037 9.94876 8.91112 11.1493 9.54987L11.263 9.60587C10.1903 12.6981 9.54451 16.2629 9.48326 19.9711V19.9991H2.02476C2.27552 15.2015 4.34056 10.6786 7.80151 7.34662L7.80851 7.34137ZM2.02651 22.0011H9.48326C9.53798 25.6219 10.1628 29.2114 11.3348 32.6376L11.263 32.3961C9.94876 33.0944 8.81826 33.8451 7.76826 34.6921L7.81026 34.6606C4.35516 31.3422 2.28915 26.8355 2.03001 22.0519L2.02826 22.0029L2.02651 22.0011Z" fill="black"/>
</g>
<defs>
<clipPath id="clip0_29_18">
<rect width="42" height="42" fill="white"/>
</clipPath>
</defs>
</svg>
