<svg width="41" height="34" viewBox="0 0 41 34" fill="none" xmlns="http://www.w3.org/2000/svg">
<path d="M14.1335 12.7522C13.8786 12.7522 13.6342 12.8362 13.454 12.9856C13.2738 13.135 13.1725 13.3377 13.1725 13.5491V20.5191C13.1725 20.7304 13.2738 20.9331 13.454 21.0825C13.6342 21.232 13.8786 21.3159 14.1335 21.3159C14.3883 21.3159 14.6327 21.232 14.813 21.0825C14.9932 20.9331 15.0944 20.7304 15.0944 20.5191V18.4313C15.0944 18.3144 15.2622 18.2549 15.3635 18.3356L18.7665 20.9844C18.8585 21.0561 18.9667 21.112 19.0847 21.149C19.2028 21.186 19.3286 21.2033 19.4547 21.2C19.5809 21.1967 19.7051 21.1728 19.8201 21.1297C19.9352 21.0866 20.0388 21.0252 20.1252 20.9489C20.2116 20.8725 20.2791 20.7828 20.3237 20.6849C20.3683 20.587 20.3892 20.4827 20.3852 20.3781C20.3812 20.2735 20.3524 20.1705 20.3004 20.0751C20.2485 19.9797 20.1743 19.8937 20.0823 19.8221L17.794 18.0403C17.6953 17.9638 17.7492 17.8224 17.8811 17.7959C18.6127 17.6475 19.2536 17.2822 19.6829 16.769C20.1122 16.2558 20.3004 15.6301 20.2118 15.0099C20.1233 14.3896 19.7642 13.8176 19.2022 13.4018C18.6402 12.9859 17.9142 12.7548 17.1611 12.7522H14.1335ZM15.2546 16.2723C15.2121 16.2723 15.1713 16.2583 15.1413 16.2334C15.1113 16.2085 15.0944 16.1747 15.0944 16.1394V14.4788C15.0944 14.4054 15.1662 14.3459 15.2546 14.3459H17.1611C17.3168 14.3417 17.472 14.3634 17.6175 14.4099C17.7629 14.4563 17.8956 14.5266 18.0076 14.6165C18.1196 14.7063 18.2087 14.8139 18.2695 14.9329C18.3304 15.0519 18.3617 15.1799 18.3617 15.3091C18.3617 15.4383 18.3304 15.5663 18.2695 15.6853C18.2087 15.8043 18.1196 15.9119 18.0076 16.0018C17.8956 16.0916 17.7629 16.1619 17.6175 16.2083C17.472 16.2548 17.3168 16.2766 17.1611 16.2723H15.2546ZM5.27618 13.6394C5.27618 13.428 5.37743 13.2254 5.55764 13.0759C5.73785 12.9265 5.98227 12.8425 6.23712 12.8425H10.8919C11.1468 12.8425 11.3912 12.9265 11.5714 13.0759C11.7516 13.2254 11.8528 13.428 11.8528 13.6394C11.8528 13.8507 11.7516 14.0534 11.5714 14.2029C11.3912 14.3523 11.1468 14.4363 10.8919 14.4363H7.35822C7.31574 14.4363 7.275 14.4503 7.24497 14.4752C7.21493 14.5001 7.19806 14.5338 7.19806 14.5691V16.2446C7.19806 16.319 7.26981 16.3774 7.35822 16.3774H10.8291C11.084 16.3774 11.3284 16.4614 11.5086 16.6108C11.6888 16.7603 11.7901 16.963 11.7901 17.1743C11.7901 17.3857 11.6888 17.5884 11.5086 17.7378C11.3284 17.8872 11.084 17.9712 10.8291 17.9712H7.35822C7.31574 17.9712 7.275 17.9852 7.24497 18.0101C7.21493 18.035 7.19806 18.0688 7.19806 18.104V20.4702C7.19806 20.6815 7.09682 20.8842 6.91661 21.0337C6.7364 21.1831 6.49198 21.2671 6.23712 21.2671C5.98227 21.2671 5.73785 21.1831 5.55764 21.0337C5.37743 20.8842 5.27618 20.6815 5.27618 20.4702V13.6394ZM22.509 12.8425C22.2541 12.8425 22.0097 12.9265 21.8295 13.0759C21.6493 13.2254 21.5481 13.428 21.5481 13.6394V20.4713C21.5481 20.9111 21.9773 21.2681 22.509 21.2681H27.1625C27.4174 21.2681 27.6618 21.1842 27.842 21.0347C28.0222 20.8853 28.1234 20.6826 28.1234 20.4713C28.1234 20.2599 28.0222 20.0572 27.842 19.9078C27.6618 19.7583 27.4174 19.6744 27.1625 19.6744H23.6301C23.609 19.6744 23.588 19.6709 23.5685 19.6642C23.549 19.6574 23.5313 19.6476 23.5164 19.6351C23.5015 19.6227 23.4897 19.6079 23.4818 19.5917C23.4738 19.5754 23.4698 19.558 23.4699 19.5405V18.1051C23.4699 18.0318 23.5417 17.9723 23.6301 17.9723H27.0997C27.3546 17.9723 27.599 17.8883 27.7792 17.7389C27.9594 17.5894 28.0607 17.3867 28.0607 17.1754C28.0607 16.964 27.9594 16.7614 27.7792 16.6119C27.599 16.4625 27.3546 16.3785 27.0997 16.3785H23.6301C23.5876 16.3785 23.5469 16.3645 23.5168 16.3396C23.4868 16.3147 23.4699 16.2809 23.4699 16.2457V14.5701C23.4699 14.4958 23.5417 14.4373 23.6301 14.4373H27.1625C27.4174 14.4373 27.6618 14.3534 27.842 14.2039C28.0222 14.0545 28.1234 13.8518 28.1234 13.6404C28.1234 13.4291 28.0222 13.2264 27.842 13.077C27.6618 12.9275 27.4174 12.8436 27.1625 12.8436L22.509 12.8425ZM30.4258 12.8425C30.171 12.8425 29.9266 12.9265 29.7464 13.0759C29.5661 13.2254 29.4649 13.428 29.4649 13.6394V20.4713C29.4649 20.9111 29.8954 21.2681 30.4258 21.2681H35.0806C35.3355 21.2681 35.5799 21.1842 35.7601 21.0347C35.9403 20.8853 36.0416 20.6826 36.0416 20.4713C36.0416 20.2599 35.9403 20.0572 35.7601 19.9078C35.5799 19.7583 35.3355 19.6744 35.0806 19.6744H31.5469C31.5258 19.6744 31.5049 19.6709 31.4853 19.6642C31.4658 19.6574 31.4481 19.6476 31.4332 19.6351C31.4183 19.6227 31.4066 19.6079 31.3986 19.5917C31.3906 19.5754 31.3866 19.558 31.3868 19.5405V18.1051C31.3868 18.0318 31.4585 17.9723 31.5469 17.9723H35.0178C35.2727 17.9723 35.5171 17.8883 35.6973 17.7389C35.8775 17.5894 35.9788 17.3867 35.9788 17.1754C35.9788 16.964 35.8775 16.7614 35.6973 16.6119C35.5171 16.4625 35.2727 16.3785 35.0178 16.3785H31.5469C31.5045 16.3785 31.4637 16.3645 31.4337 16.3396C31.4037 16.3147 31.3868 16.2809 31.3868 16.2457V14.5701C31.3868 14.4958 31.4585 14.4373 31.5469 14.4373H35.0806C35.3355 14.4373 35.5799 14.3534 35.7601 14.2039C35.9403 14.0545 36.0416 13.8518 36.0416 13.6404C36.0416 13.4291 35.9403 13.2264 35.7601 13.077C35.5799 12.9275 35.3355 12.8436 35.0806 12.8436L30.4258 12.8425Z" fill="black"/>
<path d="M7.6875 1.0625C6.84622 1.0625 6.01318 1.19991 5.23593 1.46689C4.45869 1.73387 3.75247 2.12518 3.1576 2.6185C1.95619 3.61478 1.28125 4.96604 1.28125 6.375V27.625C1.28125 29.034 1.95619 30.3852 3.1576 31.3815C3.75247 31.8748 4.45869 32.2661 5.23593 32.5331C6.01318 32.8001 6.84622 32.9375 7.6875 32.9375H33.3125C35.0115 32.9375 36.641 32.3778 37.8424 31.3815C39.0438 30.3852 39.7188 29.034 39.7188 27.625V6.375C39.7188 5.67735 39.553 4.98654 39.2311 4.34199C38.9092 3.69745 38.4373 3.11181 37.8424 2.6185C37.2475 2.12518 36.5413 1.73387 35.7641 1.46689C34.9868 1.19991 34.1538 1.0625 33.3125 1.0625H7.6875ZM3.84375 6.375C3.84375 5.52962 4.24872 4.71887 4.96956 4.1211C5.6904 3.52332 6.66807 3.1875 7.6875 3.1875H33.3125C34.3319 3.1875 35.3096 3.52332 36.0304 4.1211C36.7513 4.71887 37.1562 5.52962 37.1562 6.375V27.625C37.1562 28.4704 36.7513 29.2811 36.0304 29.8789C35.3096 30.4767 34.3319 30.8125 33.3125 30.8125H7.6875C6.66807 30.8125 5.6904 30.4767 4.96956 29.8789C4.24872 29.2811 3.84375 28.4704 3.84375 27.625V6.375Z" fill="black"/>
</svg>
