<svg width="50" height="50" viewBox="0 0 50 50" fill="none" xmlns="http://www.w3.org/2000/svg">
<path d="M24.9958 4.16663C18.7291 4.16663 14.6666 8.37288 9.86248 9.90621C7.90831 10.5312 6.93123 10.8416 6.5354 11.2812C6.13956 11.7187 6.02498 12.3625 5.79373 13.6458C3.31456 27.3875 8.73123 40.0916 21.6479 45.0375C23.0333 45.5687 23.7271 45.8333 25.0021 45.8333C26.2771 45.8333 26.9729 45.5666 28.3604 45.0354C41.275 40.0916 46.6854 27.3875 44.2062 13.6458C43.975 12.3625 43.8583 11.7187 43.4625 11.2791C43.0666 10.8395 42.0916 10.5291 40.1375 9.90621C35.3312 8.37288 31.2625 4.16663 24.9958 4.16663Z" stroke="black" stroke-width="1.5" stroke-linecap="round" stroke-linejoin="round"/>
<path d="M21.3541 20.7479C21.3541 20.6229 21.3708 19.902 21.375 18.9979C21.375 18.1687 21.3041 17.3729 21.7 16.6437C23.1791 13.6979 27.4291 13.9979 28.4791 16.9979C28.6604 17.4916 28.6729 18.2729 28.6666 18.9979C28.6604 19.9208 28.6791 20.7479 28.6791 20.7479M21.5354 21.6249C19.2854 21.6249 18.1604 23.2499 17.9104 24.2499C17.6604 25.2499 17.6604 28.8749 17.8104 30.3749C18.3104 32.2499 19.5604 33.0249 20.7854 33.2749C21.9104 33.3749 26.6604 33.3374 28.0354 33.3374C30.0354 33.3749 31.5354 32.6249 32.1604 30.3749C32.2854 29.6249 32.4104 25.4999 32.0979 24.2499C31.4354 22.2499 29.7854 21.6249 28.5354 21.6249H21.5354Z" stroke="black" stroke-width="1.5" stroke-linecap="round" stroke-linejoin="round"/>
</svg>
