<svg width="24" height="23" viewBox="0 0 24 23" fill="none" xmlns="http://www.w3.org/2000/svg">
<path d="M12.5 21.2083C17.7467 21.2083 22 17.1323 22 12.1042C22 7.07607 17.7467 3 12.5 3C7.25329 3 3 7.07607 3 12.1042C3 17.1323 7.25329 21.2083 12.5 21.2083Z" fill="#38BC55"/>
<path d="M12.755 16C10.565 16 9.47 15.22 9.47 13.66H10.835C10.835 14.545 11.48 14.995 12.755 14.995C14.045 14.995 14.675 14.545 14.675 13.66V9.55C14.675 8.665 14.045 8.215 12.755 8.215C11.48 8.215 10.835 8.665 10.835 9.55V10.435C10.835 10.825 11.15 11.05 11.765 11.05H12.755V12.19H11.765C10.235 12.19 9.47 11.605 9.47 10.435V9.55C9.47 7.99 10.565 7.21 12.755 7.21C14.96 7.21 16.055 7.99 16.055 9.55V13.66C16.055 15.22 14.96 16 12.755 16Z" fill="white"/>
</svg>
