<svg width="68" height="62" viewBox="0 0 68 62" fill="none" xmlns="http://www.w3.org/2000/svg">
<path d="M45.3334 22.258V14.508H22.6667V22.258H19.8334V11.9247H48.1667V22.258H45.3334ZM49.9092 31.2997C50.712 31.2997 51.3854 31.0517 51.9294 30.5557C52.4734 30.0597 52.7444 29.4466 52.7426 28.7164C52.7407 27.9861 52.4696 27.3722 51.9294 26.8744C51.3892 26.3767 50.7158 26.1287 49.9092 26.1304C49.1027 26.1322 48.4302 26.3802 47.8919 26.8744C47.3536 27.3687 47.0816 27.9827 47.0759 28.7164C47.0702 29.45 47.3422 30.0631 47.8919 30.5557C48.4416 31.0482 49.1121 31.2962 49.9092 31.2997ZM45.3334 49.0834V37.3602H22.6667V49.0834H45.3334ZM48.1667 51.6667H19.8334V41.3334H10.1349V27.4247C10.1349 25.9608 10.6798 24.7337 11.7697 23.7434C12.8596 22.7532 14.2036 22.2572 15.8016 22.2554H52.1986C53.8041 22.2554 55.1499 22.7514 56.2361 23.7434C57.3222 24.7354 57.8652 25.9617 57.8652 27.4221V41.3334H48.1667V51.6667ZM55.0319 38.75V27.4247C55.0319 26.6927 54.7608 26.0788 54.2187 25.5828C53.6766 25.0868 53.0032 24.8388 52.1986 24.8388H15.8016C14.9988 24.8388 14.3263 25.0868 13.7842 25.5828C13.2421 26.0788 12.9701 26.6927 12.9682 27.4247V38.75H19.8334V34.7768H48.1667V38.75H55.0319Z" fill="black"/>
</svg>
