<svg width="20" height="20" viewBox="0 0 20 20" fill="none" xmlns="http://www.w3.org/2000/svg">
<path d="M10 20C15.5228 20 20 15.5228 20 10C20 4.47715 15.5228 0 10 0C4.47715 0 0 4.47715 0 10C0 15.5228 4.47715 20 10 20Z" fill="#38BC55"/>
<path d="M10.625 15C7.85 15 6.47 14.025 6.47 12.075V5.385H5.735V4.38H7.16C7.64 4.38 7.85 4.59 7.85 4.995V12.075C7.85 13.35 8.765 13.995 10.625 13.995C12.5 13.995 13.43 13.35 13.43 12.075V7.44L11.93 8.715L10.415 7.44V9.6H10.79V10.605H9.035V6.21H10.415L11.93 7.485L13.43 6.21H14.81V12.075C14.81 14.025 13.415 15 10.625 15Z" fill="white"/>
</svg>
