<svg width="37" height="37" viewBox="0 0 37 37" fill="none" xmlns="http://www.w3.org/2000/svg">
<g clip-path="url(#clip0_28_37)">
<path d="M18.5 0C8.28164 0 0 8.28164 0 18.5C0 28.7184 8.28164 37 18.5 37C28.7184 37 37 28.7184 37 18.5C37 8.28164 28.7184 0 18.5 0ZM18.5 33.9143C9.98711 33.9143 3.08574 27.0129 3.08574 18.5C3.08574 9.98711 9.98711 3.08574 18.5 3.08574C27.0129 3.08574 33.9143 9.98711 33.9143 18.5C33.9143 27.0129 27.0129 33.9143 18.5 33.9143ZM16.9607 16.9607H9.25V20.0465H20.0393V6.17148H16.9535V16.9607H16.9607Z" fill="black"/>
</g>
<defs>
<clipPath id="clip0_28_37">
<rect width="37" height="37" fill="white"/>
</clipPath>
</defs>
</svg>
