<svg width="64" height="64" viewBox="0 0 64 64" fill="none" xmlns="http://www.w3.org/2000/svg">
<g clip-path="url(#clip0_2578_11735)">
<g opacity="0.24">
<mask id="path-1-inside-1_2578_11735" fill="white">
<path d="M0 0H64V64H0V0Z"/>
</mask>
<path d="M64 64V65H65V64H64ZM63 0V64H65V0H63ZM64 63H0V65H64V63Z" fill="#B4B4C3" mask="url(#path-1-inside-1_2578_11735)"/>
</g>
<g opacity="0.12">
<mask id="path-3-inside-2_2578_11735" fill="white">
<path d="M0 0H32V32H0V0Z"/>
</mask>
<path d="M32 32V33H33V32H32ZM31 0V32H33V0H31ZM32 31H0V33H32V31Z" fill="#B4B4C3" mask="url(#path-3-inside-2_2578_11735)"/>
</g>
<g opacity="0.12">
<mask id="path-5-inside-3_2578_11735" fill="white">
<path d="M0 32H32V64H0V32Z"/>
</mask>
<path d="M31 32V64H33V32H31Z" fill="#B4B4C3" mask="url(#path-5-inside-3_2578_11735)"/>
</g>
<g opacity="0.12">
<mask id="path-7-inside-4_2578_11735" fill="white">
<path d="M32 0H64V32H32V0Z"/>
</mask>
<path d="M64 31H32V33H64V31Z" fill="#B4B4C3" mask="url(#path-7-inside-4_2578_11735)"/>
</g>
</g>
<defs>
<clipPath id="clip0_2578_11735">
<rect width="64" height="64" fill="white"/>
</clipPath>
</defs>
</svg>